<svg xmlns="http://www.w3.org/2000/svg" viewBox="0 0 400 400">
  <rect width="400" height="400" fill="#0a0b0f"/>
  <rect x="95" y="95" width="210" height="130" rx="6" fill="none" stroke="#e7e9ee" stroke-width="3" opacity="0.6"/>
  <g fill="#58a6ff">
    <rect x="110" y="110" width="26" height="26" rx="3"/>
    <rect x="144" y="110" width="26" height="26" rx="3"/>
    <rect x="178" y="110" width="26" height="26" rx="3"/>
    <rect x="212" y="110" width="26" height="26" rx="3"/>
    <rect x="246" y="110" width="26" height="26" rx="3"/>
    <rect x="110" y="144" width="26" height="26" rx="3"/>
    <rect x="144" y="144" width="26" height="26" rx="3"/>
    <rect x="212" y="144" width="26" height="26" rx="3"/>
    <rect x="246" y="144" width="26" height="26" rx="3"/>
    <rect x="110" y="178" width="26" height="26" rx="3"/>
    <rect x="144" y="178" width="26" height="26" rx="3"/>
    <rect x="178" y="178" width="26" height="26" rx="3"/>
    <rect x="212" y="178" width="26" height="26" rx="3"/>
    <rect x="246" y="178" width="26" height="26" rx="3"/>
  </g>
  <rect x="178" y="144" width="26" height="26" rx="3" fill="#22d3ee"/>
  <line x1="191" y1="157" x2="120" y2="70" stroke="#fbbf24" stroke-width="2" stroke-dasharray="3 3" opacity="0.7"/>
  <line x1="191" y1="157" x2="300" y2="70" stroke="#fbbf24" stroke-width="2" stroke-dasharray="3 3" opacity="0.7"/>
  <text x="200" y="278" font-family="-apple-system,Segoe UI,Roboto,sans-serif" font-size="28" font-weight="700" fill="#e6edf3" text-anchor="middle">GPU Visualized</text>
  <text x="200" y="306" font-family="-apple-system,Segoe UI,Roboto,sans-serif" font-size="14" fill="#8b98a5" text-anchor="middle">Die to roofline, one GPU at a time</text>
</svg>
